<svg width="428" height="61" viewBox="0 0 428 61" fill="none" xmlns="http://www.w3.org/2000/svg"><g clip-path="url(#a)"><path d="M206.061 30.11v.38c-.23 4.8-2 8.68-6.41 10.85-6.74 3.28-16.1.11-17.11-9.36-.44-4.21.53-8 3.79-10.87 3.61-3.17 7.87-3.69 12.29-2.1 4.42 1.59 6.55 4.84 7.25 9.26.1.64.14 1.28.19 1.84zm4.8 17V.62h-4.8v17.69a16.095 16.095 0 0 0-2.87-2.13 17.72 17.72 0 0 0-11.28-2.18 15.6 15.6 0 0 0-10.17 5c-3.33 3.67-4.41 8.08-4.05 12.9a15.784 15.784 0 0 0 4.4 10.1c5 5.11 13.93 6.38 20.47 2.84a16.334 16.334 0 0 0 3.5-2.51v4.75h4.8v.03z" fill="#fff" stroke="#fff" stroke-width="1.25" stroke-miterlimit="10"/><path d="M262.518 29.93c-.07 5.56-1.74 10.08-5.94 13.43a16.999 16.999 0 0 1-12.36 3.42 15.912 15.912 0 0 1-10.22-4.47 15.73 15.73 0 0 1-4.67-10.43c-.36-4.79.71-9.19 4-12.86a15.61 15.61 0 0 1 10.24-5 17.73 17.73 0 0 1 11.13 2.08 15.004 15.004 0 0 1 7.6 11.63c.12.85.15 1.71.19 2.25l.03-.05zm-4.81.36c-.05-.56-.09-1.26-.19-1.95-.68-4.47-3-7.8-7.28-9.34-4.5-1.6-8.79-1-12.41 2.25-3.14 2.85-4.08 6.58-3.65 10.7 1 9.65 10.6 12.8 17.35 9.31 4.35-2.24 6-6.15 6.18-11" fill="#fff"/><path d="M257.708 30.29c-.05-.56-.09-1.26-.19-1.95-.68-4.47-3-7.8-7.28-9.34-4.5-1.6-8.79-1-12.41 2.25-3.14 2.85-4.08 6.58-3.65 10.7 1 9.65 10.6 12.8 17.35 9.31 4.35-2.24 6-6.15 6.18-11m4.81-.33c-.07 5.56-1.74 10.08-5.94 13.43a16.999 16.999 0 0 1-12.36 3.42 15.912 15.912 0 0 1-10.22-4.47 15.73 15.73 0 0 1-4.67-10.43c-.36-4.79.71-9.19 4-12.86a15.61 15.61 0 0 1 10.24-5 17.73 17.73 0 0 1 11.13 2.08 15.004 15.004 0 0 1 7.6 11.63c.12.85.15 1.71.19 2.25l.03-.05z" stroke="#fff" stroke-width="1.25" stroke-miterlimit="10"/><path d="M224.191 47.1h-4.8V14.29h4.79l.01 32.81z" fill="#fff" stroke="#fff" stroke-width="1.25" stroke-miterlimit="10"/><path d="M218.469 4.9a3.165 3.165 0 0 1 .871-2.411 3.169 3.169 0 0 1 2.369-.98 3.232 3.232 0 0 1 3.19 3.4 3.171 3.171 0 0 1-3.28 3.36 3.101 3.101 0 0 1-3.15-3.37" fill="#fff"/><path d="M218.469 4.9a3.165 3.165 0 0 1 .871-2.411 3.169 3.169 0 0 1 2.369-.98 3.232 3.232 0 0 1 3.19 3.4 3.171 3.171 0 0 1-3.28 3.36 3.101 3.101 0 0 1-3.15-3.37" stroke="#fff" stroke-width="1.25" stroke-miterlimit="10"/><path d="M330.47 30.19c-.19 6.46-2.56 11.57-8.31 14.69-6.54 3.54-15.49 2.27-20.47-2.85a15.774 15.774 0 0 1-4.39-10.14c-.36-4.82.72-9.25 4-12.92a15.633 15.633 0 0 1 10.18-5 17.689 17.689 0 0 1 11.27 2.15 14.996 14.996 0 0 1 7.47 11.54c.12.88.15 1.77.21 2.53h.04zm-4.84 0c-.06-.6-.09-1.3-.2-2-.69-4.43-3-7.73-7.24-9.27-4.43-1.6-8.69-1.07-12.3 2.11-3.26 2.86-4.23 6.66-3.78 10.88 1 9.49 10.37 12.67 17.1 9.37 4.53-2.21 6.24-6.18 6.42-11.1" fill="#fff"/><path d="M325.63 30.19c-.06-.6-.09-1.3-.2-2-.69-4.43-3-7.73-7.24-9.27-4.43-1.6-8.69-1.07-12.3 2.11-3.26 2.86-4.23 6.66-3.78 10.88 1 9.49 10.37 12.67 17.1 9.37 4.53-2.21 6.24-6.18 6.42-11.1m4.84.01c-.19 6.46-2.56 11.57-8.31 14.69-6.54 3.54-15.49 2.27-20.47-2.85a15.774 15.774 0 0 1-4.39-10.14c-.36-4.82.72-9.25 4-12.92a15.633 15.633 0 0 1 10.18-5 17.689 17.689 0 0 1 11.27 2.15 14.996 14.996 0 0 1 7.47 11.54c.12.88.15 1.77.21 2.53h.04z" stroke="#fff" stroke-width="1.25" stroke-miterlimit="10"/><path d="M132.101 30.7v.12c-.23 4.81-2 8.69-6.41 10.87-6.74 3.29-16.1.11-17.11-9.38-.45-4.21.53-8 3.79-10.88 3.61-3.18 7.87-3.7 12.29-2.11 4.42 1.59 6.55 4.84 7.25 9.28.11.68.14 1.38.2 2 .005.04.005.08 0 .12l-.01-.02zm4.81.02v-.14c-.06-.77-.09-1.66-.21-2.54a14.995 14.995 0 0 0-7.46-11.54 17.7 17.7 0 0 0-11.24-2.17 15.63 15.63 0 0 0-10.18 5c-3.33 3.68-4.41 8.1-4 12.93a15.782 15.782 0 0 0 4.4 10.13c5 5.13 13.93 6.4 20.47 2.85a16.6 16.6 0 0 0 3.5-2.52V47h4.8l-.08-16.28zm224.298-.61v.38c-.23 4.8-2 8.68-6.41 10.85-6.74 3.28-16.1.11-17.11-9.36-.44-4.21.53-8 3.79-10.87 3.61-3.17 7.87-3.69 12.29-2.1 4.42 1.59 6.55 4.84 7.25 9.26.1.64.14 1.28.19 1.84zm4.82 17l-.03-46.49h-4.8v17.69a15.694 15.694 0 0 0-2.87-2.13 17.71 17.71 0 0 0-11.27-2.18 15.622 15.622 0 0 0-10.17 5c-3.33 3.67-4.41 8.08-4.05 12.9a15.784 15.784 0 0 0 4.4 10.1c5 5.11 13.93 6.38 20.47 2.84a16.284 16.284 0 0 0 3.5-2.51v4.69l4.82.09z" fill="#fff" stroke="#fff" stroke-width="1.25" stroke-miterlimit="10"/><path d="M281.609 18c-6.74 0-11.56 4.94-11.56 12.1 0 7.16 4.82 12.15 11.56 12.15 4.27 0 7.79-1.48 10.08-4.2l2.78 2.84c-2.91 3.52-7.42 5.62-13.05 5.62-9.45 0-16.13-6.73-16.13-16.41s6.71-16.39 16.13-16.39c5.26 0 9.59 1.79 12.55 4.82l-2.65 3.33a13.543 13.543 0 0 0-9.71-3.86" fill="#fff"/><path d="M281.609 18c-6.74 0-11.56 4.94-11.56 12.1 0 7.16 4.82 12.15 11.56 12.15 4.27 0 7.79-1.48 10.08-4.2l2.78 2.84c-2.91 3.52-7.42 5.62-13.05 5.62-9.45 0-16.13-6.73-16.13-16.41s6.71-16.39 16.13-16.39c5.26 0 9.59 1.79 12.55 4.82l-2.65 3.33a13.543 13.543 0 0 0-9.71-3.86" stroke="#fff" stroke-width="1.25" stroke-miterlimit="10"/><path d="M172.999 16.15v30.91h-4.83v-4.34c-2.89 2.73-6.49 4.47-12.37 4.53-7.61 0-12.19-4.83-12.19-12.68V16.15h4.83v17.18c0 5.82 2.85 9.58 8.48 9.58 6.75-.12 11.25-5.37 11.25-12.42V16.15h4.83zm227.923 16.18h-27c.81 6.53 5.52 10.79 12 10.79a13.828 13.828 0 0 0 10.22-4.2l2.7 2.82a17.55 17.55 0 0 1-13.3 5.46c-9.73 0-16.44-6.84-16.44-16.69 0-9.85 6.77-16.63 16.38-16.69 10.66 0 15.94 7.34 15.43 18.51h.01zm-4.4-3.89c-.31-6.4-4.58-10.54-11-10.54s-10.89 4.1-11.58 10.54h22.58z" fill="#fff" stroke="#fff" stroke-width="1.25" stroke-miterlimit="10"/><path d="M415.002 17.9c-3.66 0-6.45 1.3-6.45 4.39 0 7.35 18.23 3.59 18.23 15.27 0 6.36-5.7 9.21-12 9.21a18.447 18.447 0 0 1-12.52-4.58l1.86-3.52a16.56 16.56 0 0 0 10.88 4.14c3.85 0 7-1.48 7-4.76.18-7.91-18.11-3.89-18.05-15.39 0-6.18 5.4-8.84 11.35-8.84a19.4 19.4 0 0 1 10.42 3l-1.86 3.7a17.303 17.303 0 0 0-8.86-2.62" fill="#fff"/><path d="M415.002 17.9c-3.66 0-6.45 1.3-6.45 4.39 0 7.35 18.23 3.59 18.23 15.27 0 6.36-5.7 9.21-12 9.21a18.447 18.447 0 0 1-12.52-4.58l1.86-3.52a16.56 16.56 0 0 0 10.88 4.14c3.85 0 7-1.48 7-4.76.18-7.91-18.11-3.89-18.05-15.39 0-6.18 5.4-8.84 11.35-8.84a19.4 19.4 0 0 1 10.42 3l-1.86 3.7a17.303 17.303 0 0 0-8.86-2.62" stroke="#fff" stroke-width="1.25" stroke-miterlimit="10"/><path d="M52.922 9.26s7.42-7.45 21.29-7.45A25.93 25.93 0 0 1 96.672 14l-10.9 8s-3-6.15-11.85-6.15c-5.85 0-11.18 3.22-12.51 8.45-2.52-10.11-8.49-15.04-8.49-15.04zM69.75 45.82c.02 2.561.357 5.11 1 7.59.6 2.267 1.41 4.473 2.42 6.59 0 0 16.92 1 24.22-12.62L86.23 40s-4.4 9.86-16.48 5.86" fill="#32a2db"/><path d="M67.91 45.43c-5.31-2.68-7.57-9-7.57-14.14 0-16-12.51-29-30.07-29C13.13 2.26 0 11.64 0 32.3c0 26.79 31.86 35.34 50.52 20.79a30.23 30.23 0 0 1-7.64-15.45c-4.67 12.23-20.13 12.25-24.71 2.8-4.8-9.9-1.83-23.9 12-23.9 9.78 0 13.54 7.53 13.54 14 0 15.88 10.83 29.47 27.21 29.47a42.744 42.744 0 0 1-2.32-7.11 38.44 38.44 0 0 1-.69-7.47" fill="#585858"/></g><defs><clipPath id="a"><path fill="#fff" d="M0 0h427.44v60.12H0z"/></clipPath></defs></svg>