<svg width="2500" height="537" viewBox="0 0 2500 537" fill="none" xmlns="http://www.w3.org/2000/svg"><g clip-path="url(#a)"><path d="M732.93 0L570.364 329.19 407.756 0h-56.524L543.32 388.619h54.089L789.454 0H732.93zm699.48 0L1269.8 329.19 1107.24 0h-56.53l192.09 388.619L1170.85 537h55.07L1488.93 0h-56.52zM192.853 0L.766 388.619H57.29l31.402-63.574h193.156l-19.653-45.244H111.037L219.898 59.472l162.651 329.147h56.481L246.942 0h-54.089zM1654.4 0h-54.13l-192.04 388.619h56.56l31.36-63.574h193.16l-19.65-45.244H1518.5l108.86-220.329 162.57 329.147h56.52L1654.4 0z" fill="#fff"/><path d="M895.197 0L703.109 388.619h56.524l31.403-63.574h193.113l-19.653-45.244H813.38L922.242 59.472l162.568 329.147h56.52L949.243 0h-54.046zm522.093 488.166c7.35 0 12.9 2.436 15.12 9.741h18.76c-3.46-18.243-19.83-22.473-33.88-22.473-21.88 0-36.53 8.844-36.53 29.694 0 20.849 14.14 29.736 34.99 29.736 18.07 0 32.08-4.444 35.42-24.054h-18.76c-.94 6.921-7.09 11.279-15.12 11.279-11.24 0-17.73-6.109-17.73-16.919 0-10.809 6.53-17.004 17.73-17.004zm88.86-12.774c-21.87 0-36.53 8.844-36.53 29.693 0 20.849 14.7 29.736 36.53 29.736 21.83 0 36.53-8.887 36.53-29.736s-14.65-29.693-36.53-29.693z" fill="#fff"/><path d="M1506.15 522.047c-11.28 0-17.73-6.11-17.73-16.919 0-10.809 6.45-16.919 17.73-16.919 11.24 0 17.78 6.11 17.78 16.919 0 10.809-6.54 16.919-17.78 16.919z" fill="#161616"/><path d="M1642.95 476.033c-4.35-.207-8.69.627-12.66 2.432a27.374 27.374 0 0 0-10.15 7.95c-2.78-6.281-8.59-10.382-19.1-10.382-10.64 0-19.31 4.785-22.56 9.485h-.25v-8.033h-17.52v55.328h18.2v-29.907c0-8.673 6.15-12.817 13.93-12.817 5 0 10.94 2.093 10.94 9.485v33.239h18.15v-29.907c0-8.673 6.2-12.817 13.72-12.817 5.25 0 11.15 2.093 11.15 9.485v33.239h18.16v-37.512c-.09-14.569-10.9-19.268-22.01-19.268zm124.63 0c-4.35-.207-8.69.627-12.66 2.432a27.374 27.374 0 0 0-10.15 7.95c-2.78-6.281-8.59-10.382-19.1-10.382-10.64 0-19.31 4.785-22.56 9.485h-.26v-8.033h-17.51v55.328h18.16v-29.907c0-8.673 6.19-12.817 13.92-12.817 5.04 0 10.98 2.093 10.98 9.485v33.239h18.16v-29.907c0-8.673 6.2-12.817 13.72-12.817 5.25 0 11.15 2.093 11.15 9.485v33.239h18.15v-37.512c-.04-14.569-10.85-19.268-22-19.268zm101.3 29.052c0 10.254-5.55 15.723-15.38 15.723-8.33 0-12.39-3.717-12.39-11.45V477.4h-18.16v37.512c0 16.278 14.36 19.909 23.76 19.909 10.59 0 19.27-4.87 22.6-9.57h.17v7.477h17.56V477.4h-18.16v27.685zm83.31-29.052c-10.68 0-19.35 4.785-22.6 9.485h-.26v-8.033h-17.51v55.328h18.16v-26.745c0-11.749 7.13-15.979 15.59-15.979 8.12 0 12.13 3.717 12.13 11.365v31.359h18.2v-36.785c-.04-16.364-14.35-19.995-23.71-19.995zm57.08 56.737h18.2v-55.327h-18.2v55.327zm0-62.078h18.2v-12.817h-18.2v12.817zm76.91 17.474c7.34 0 12.9 2.436 15.08 9.742h18.75c-3.37-18.244-19.78-22.473-33.83-22.473-21.92 0-36.58 8.844-36.58 29.693 0 20.849 14.19 29.736 35.04 29.736 18.07 0 32.08-4.443 35.37-24.054h-18.75c-.9 6.922-7.05 11.279-15.08 11.279-11.28 0-17.78-6.109-17.78-16.918 0-10.81 6.5-17.005 17.78-17.005zm119.37 5.982c0-10.339-5.56-18.756-31.58-18.756-14.86 0-30.54 1.922-32.72 18.969h17.56c2.56-7.647 6.53-8.245 14.31-8.245 10.51 0 14.27 2.221 14.27 6.579 0 4.443-1.84 5.383-7.44 5.811l-19.35 1.324c-11.02.726-22.86 3.632-22.86 17.004 0 12.903 10.09 17.987 24.48 17.987 8.16 0 19.74-1.751 25.94-7.989.16 2.009.58 3.99 1.24 5.896h18.2a26.036 26.036 0 0 1-2.1-11.151v-27.429h.05z" fill="#fff"/><path d="M2188.03 510.34c0 9.271-10.25 13.757-19.4 13.757-6.83 0-11.53-2.82-11.53-7.776 0-4.956 3.24-6.75 9.65-7.22l10.51-.897c3.7-.194 7.35-1.018 10.77-2.435v4.571z" fill="#161616"/><path d="M2256.94 515.424v-25.805h14.66v-12.176h-14.66v-17.09h-18.2v17.09h-11.49v12.176h11.49v27.984c0 9.998 1.67 16.364 18.89 16.364 4.01 0 10.81-.598 14.22-1.026v-12.133c-2.82.171-5.64.384-8.88.384-4.7 0-6.03-1.452-6.03-5.768zm44.05-44.732h18.12v-12.817h-18.12v12.817zm0 62.078h18.12v-55.327h-18.12v55.327zm76.91-57.378c-21.92 0-36.53 8.844-36.53 29.693 0 20.85 14.65 29.736 36.53 29.736 21.87 0 36.48-8.886 36.48-29.736 0-20.849-14.65-29.693-36.48-29.693z" fill="#fff"/><path d="M2377.9 522.047c-11.28 0-17.78-6.11-17.78-16.919 0-10.809 6.5-16.919 17.78-16.919 11.23 0 17.73 6.11 17.73 16.919 0 10.809-6.54 16.919-17.73 16.919z" fill="#161616"/><path d="M2475.52 476.032c-10.64 0-19.31 4.785-22.56 9.485h-.25v-8.032h-17.52v55.328h18.2v-26.746c0-11.749 7.09-15.979 15.55-15.979 8.12 0 12.18 3.717 12.18 11.365v31.36h18.16v-36.786c-.05-16.363-14.36-19.995-23.76-19.995z" fill="#fff"/></g><defs><clipPath id="a"><path fill="#fff" d="M0 0h2500v537H0z"/></clipPath></defs></svg>