<svg xmlns="http://www.w3.org/2000/svg" width="180" height="35.589" viewBox="0 0 180 35.589"><defs><style>.a{fill:#cd1422}.b{fill:#fff}</style></defs><path class="a" d="M166.106.178c-8.268-.929-17.611 1.859-24.607 6.8a39.231 39.231 0 0 1 21.182-4.305c12.034 1.272 17.122 9.393 11.35 18.1s-20.155 14.823-32.19 13.551a27.318 27.318 0 0 1-2.886-.489 23.563 23.563 0 0 0 6.066 1.565c12.181 1.419 26.76-5.332 32.581-15.068s.685-18.834-11.5-20.155"/><path class="b" d="M52.645 17.74a9 9 0 0 0 3.953-1.37 2.925 2.925 0 0 0 1.375-2.446 2.469 2.469 0 0 0-.6-1.614 4.825 4.825 0 0 0-1.633-1.125 7.334 7.334 0 0 0-.945-.342 9.8 9.8 0 0 0-1.16-.245c-.43-.049-.988-.1-1.59-.147s-11.261-.045-11.261-.045v14.28h5.672V11.674s2.707 0 3.395.1a6.115 6.115 0 0 1 1.633.342 1.833 1.833 0 0 1 .945.832 2.9 2.9 0 0 1 .3 1.468 2.461 2.461 0 0 1-1.2 2.25 3.937 3.937 0 0 1-2.664.734l6.79 7.387c.516 0 1.031-.049 1.547-.049h1.246c.516 0 1.031 0 1.547.049-1.248-1.181-2.537-2.302-3.787-3.481a45.529 45.529 0 0 1-3.567-3.571M8.208 13.043a7.089 7.089 0 0 1 2.535-1.125 10.73 10.73 0 0 1 2.793-.391 11.946 11.946 0 0 1 3.223.44 8.642 8.642 0 0 1 2.707 1.419h.473a4.9 4.9 0 0 1 .258-1.076 3.668 3.668 0 0 1 .516-1.027c-.473-.147-.945-.294-1.418-.391-.559-.1-1.16-.245-1.762-.342s-1.289-.147-1.934-.2-1.289-.1-1.891-.1a30.709 30.709 0 0 0-5.2.44 15.848 15.848 0 0 0-4.383 1.37 8.015 8.015 0 0 0-3.008 2.446A5.821 5.821 0 0 0 .008 18.18a4.756 4.756 0 0 0 .859 2.74 8.029 8.029 0 0 0 2.492 2.2 13.593 13.593 0 0 0 4 1.419 24.709 24.709 0 0 0 5.372.489 26.486 26.486 0 0 0 7.047-.832 3.417 3.417 0 0 1 .258-.881 4.968 4.968 0 0 1 .473-.832l-.43-.147a7.863 7.863 0 0 1-1.289.636 15.541 15.541 0 0 1-1.59.489 10.03 10.03 0 0 1-1.676.294 9.636 9.636 0 0 1-1.676.1 12.266 12.266 0 0 1-2.965-.342 8.856 8.856 0 0 1-2.621-1.076 6.006 6.006 0 0 1-1.891-1.859 4.65 4.65 0 0 1-.731-2.74 5.293 5.293 0 0 1 .688-2.837 5.907 5.907 0 0 1 1.88-1.958m64.848-2.637s-2.406.049-2.621 0c-.473.783-9.54 13.991-9.8 14.383h3.352l6.491-10.376 6.575 10.371h5.629zm-48.773.1v14.278h13.364a8.931 8.931 0 0 1 0-1.517H29.74c-.086-.832 0-5.283 0-5.283h4.813v-1.418h-4.727v-4.26h7.821v-1.81zm133.128 0v9.882l-14.954-9.882h-3.094s.043 14.187 0 14.285h2.707c-.043-.147 0-9.491.043-9.882 5.329 3.376 14.911 9.882 14.911 9.882h3.266l.043-14.285zm-25.182 1.565a15.878 15.878 0 0 0-4.121-1.376 26.3 26.3 0 0 0-5.161-.489 25.582 25.582 0 0 0-5.457.587 13.341 13.341 0 0 0-4.168 1.614 8.628 8.628 0 0 0-2.664 2.348 4.759 4.759 0 0 0-.945 2.886 5.536 5.536 0 0 0 1.031 3.376 7.774 7.774 0 0 0 2.793 2.3 16.045 16.045 0 0 0 4.168 1.321 30.012 30.012 0 0 0 5.114.391 24.359 24.359 0 0 0 5.329-.538 16 16 0 0 0 4.168-1.517 9.46 9.46 0 0 0 2.75-2.348 4.77 4.77 0 0 0 .988-2.935 5.533 5.533 0 0 0-1.031-3.278 7.018 7.018 0 0 0-2.793-2.348m-2.492 8.072a6.152 6.152 0 0 1-1.676 2.055 6.932 6.932 0 0 1-2.449 1.223 12.34 12.34 0 0 1-2.965.391 12.842 12.842 0 0 1-2.75-.294 7.013 7.013 0 0 1-2.32-.978 4.841 4.841 0 0 1-1.59-1.859 6.238 6.238 0 0 1-.6-2.788 6.161 6.161 0 0 1 1.977-4.55 6.575 6.575 0 0 1 2.363-1.37 8.846 8.846 0 0 1 3.18-.489 12.76 12.76 0 0 1 3.051.391 7.309 7.309 0 0 1 2.363 1.174 5.733 5.733 0 0 1 1.547 1.761 5.2 5.2 0 0 1 .559 2.446 7.431 7.431 0 0 1-.688 2.886m-28.795-1.76s.172 4.843.129 5.039a1.544 1.544 0 0 1-.645.147 6.219 6.219 0 0 1-.988.1 9.319 9.319 0 0 0-1.117.1 7.909 7.909 0 0 1-1.031.049 14.571 14.571 0 0 1-3.567-.44 7.713 7.713 0 0 1-2.618-1.228 4.938 4.938 0 0 1-1.633-1.859 4.753 4.753 0 0 1-.559-2.3 5.354 5.354 0 0 1 .774-2.837 6.312 6.312 0 0 1 1.977-2.006 8.55 8.55 0 0 1 2.793-1.223 13.842 13.842 0 0 1 3.18-.391 11.419 11.419 0 0 1 4.039.587 7.8 7.8 0 0 1 2.75 1.517h.473a7.07 7.07 0 0 1 .43-1.027c.172-.342.344-.685.516-1.076a33.114 33.114 0 0 0-3.782-.929 28.189 28.189 0 0 0-4.555-.342 31.733 31.733 0 0 0-5.672.489 15.607 15.607 0 0 0-4.555 1.468 8.512 8.512 0 0 0-3.008 2.446 5.49 5.49 0 0 0-1.074 3.473 4.464 4.464 0 0 0 1.031 2.935 9.283 9.283 0 0 0 2.836 2.2 17.069 17.069 0 0 0 4.3 1.37 29.405 29.405 0 0 0 5.457.489c1.5 0 3.051-.1 4.6-.245s3.094-.342 4.6-.636c-.043-.1.172-5.773.172-5.773z"/></svg>