<svg width="338" height="69" viewBox="0 0 338 69" fill="none" xmlns="http://www.w3.org/2000/svg"><g clip-path="url(#a)"><path d="M124.029 51.959l-4.028-12.407h-13.213l-3.867 12.407h-3.223l10.205-31.099c.537-2.04.681-3.258.43-3.652-.251-.43-.841-.77-1.772-1.02-.538-.144-.914-.27-1.128-.376-.215-.108-.323-.305-.323-.591 0-.466.412-.698 1.236-.698h6.875l12.514 37.436h-3.706zm-4.78-14.824l-5.908-18.262-5.747 18.262h11.655zm13.778 1.933c0 3.76.662 6.5 1.987 8.218 1.325 1.719 2.972 2.578 4.942 2.578 1.754 0 3.348-.86 4.78-2.578 1.432-1.719 2.148-4.118 2.148-7.197v-4.082c0-2.4-.716-4.369-2.148-5.908-1.397-1.576-2.936-2.364-4.619-2.364-2.363 0-4.136.967-5.318 2.9-1.181 1.934-1.772 4.745-1.772 8.433zm14.019 8.326c-.18.322-.376.626-.591.913-1.719 2.685-4.011 4.028-6.875 4.028-3.151 0-5.604-1.235-7.359-3.706-1.754-2.507-2.632-5.747-2.632-9.722 0-4.225.896-7.555 2.686-9.99 1.79-2.435 4.225-3.652 7.305-3.652 3.007 0 5.335 1.145 6.982 3.437l.484.645c0-1.397.232-2.435.698-3.116.429-.644.949-.966 1.557-.966h1.075v35.932h-3.33V47.394zm30.213 4.565h-3.33v-6.123a8.296 8.296 0 0 1-2.31 3.974c-1.683 1.683-3.831 2.525-6.445 2.525-1.934 0-3.617-.752-5.049-2.256-1.432-1.504-2.148-4.207-2.148-8.11V31.227c0-1.075-.143-1.898-.43-2.471-.286-.609-.77-1.003-1.45-1.182-.501-.143-.86-.268-1.074-.376a.556.556 0 0 1-.323-.537c0-.465.43-.698 1.289-.698h3.868c.966 0 1.45.573 1.45 1.719v14.824c0 2.399.412 4.171 1.235 5.317.86 1.11 2.005 1.665 3.438 1.665 2.399 0 4.404-1.146 6.015-3.437 1.039-1.468 1.683-3.975 1.934-7.52v-7.304c0-1.075-.161-1.898-.483-2.471-.287-.609-.717-.985-1.29-1.128-.608-.18-1.02-.322-1.235-.43a.66.66 0 0 1-.268-.537c0-.465.429-.698 1.289-.698h3.867c.967 0 1.45.555 1.45 1.665v24.331zm21.942-4.458c-.466 1.325-1.504 2.47-3.115 3.438-1.612.93-3.491 1.396-5.64 1.396-2.113 0-3.885-.627-5.317-1.88-1.397-1.253-2.095-2.936-2.095-5.049 0-2.828 1.271-5.066 3.813-6.714 2.543-1.683 6.052-2.524 10.528-2.524h1.826v-1.665c0-2.292-.573-4.028-1.719-5.21-1.11-1.217-2.632-1.826-4.565-1.826-1.683 0-3.08.43-4.19 1.289-1.11.86-1.665 1.933-1.665 3.223h-3.706c0-1.827.895-3.402 2.686-4.727 1.79-1.325 4.136-1.987 7.036-1.987 3.008 0 5.335.787 6.982 2.363 1.683 1.54 2.525 3.742 2.525 6.606V51.96h-3.384v-4.458zm0-8.97c-4.404-.107-7.645.412-9.722 1.558-2.041 1.146-3.061 2.74-3.061 4.78 0 1.719.483 2.972 1.45 3.76 1.003.752 2.148 1.128 3.437 1.128 1.934 0 3.724-.68 5.372-2.041 1.683-1.397 2.524-3.17 2.524-5.318v-3.867zm14.208-20.678v8.11h7.197v2.148h-7.144v17.94c0 1.396.34 2.435 1.021 3.115.68.645 1.719.967 3.115.967.716 0 1.379-.018 1.987-.054.609-.036 1.11-.107 1.504-.215v2.202c-.429.144-1.146.251-2.148.323a34.693 34.693 0 0 1-2.256.107c-1.54 0-2.757-.143-3.652-.43-.86-.322-1.504-.805-1.934-1.45-.465-.608-.752-1.396-.859-2.363a33.043 33.043 0 0 1-.161-3.491v-16.65h-3.868v-2.15h3.868v-4.887l3.33-3.223zm13.939 21.215c.107 3.116.966 5.676 2.578 7.681 1.611 1.97 3.813 3.08 6.606 3.33a12.26 12.26 0 0 0 3.223-.107 11.996 11.996 0 0 0 3.384-1.075c.358-.179.662-.214.913-.107.25.108.394.269.429.483.072.251.036.52-.107.806a1.85 1.85 0 0 1-.645.645c-.93.537-2.094.966-3.491 1.289-1.36.286-2.9.376-4.619.268-3.258-.215-6.069-1.557-8.432-4.028-2.364-2.47-3.545-5.944-3.545-10.42 0-3.975 1.056-7.054 3.169-9.238 2.112-2.22 4.851-3.33 8.217-3.33 2.793 0 5.139 1.002 7.036 3.008 1.898 2.005 2.847 4.959 2.847 8.862v1.933h-17.563zm0-2.31h14.179c0-3.365-.644-5.746-1.933-7.143-1.254-1.432-2.793-2.148-4.619-2.148-2.077 0-3.85.823-5.318 2.47-1.468 1.612-2.238 3.886-2.309 6.822zm26.99 15.201h-3.437V18.551c0-1.074-.143-1.898-.43-2.47-.286-.574-.734-.932-1.342-1.075-.609-.215-1.003-.376-1.182-.483a.662.662 0 0 1-.269-.538c0-.43.412-.644 1.236-.644h3.921c1.002 0 1.503.573 1.503 1.719v36.899zm27.18 0h-3.491V19.786c0-1.074-.161-1.898-.483-2.47-.323-.61-.842-1.003-1.558-1.182-.644-.143-1.092-.269-1.343-.376-.25-.108-.376-.287-.376-.537 0-.466.412-.698 1.236-.698h4.511c1.003 0 1.504.572 1.504 1.718V51.96zm10.985 0h-3.222V31.227c0-1.075-.161-1.898-.484-2.471-.286-.609-.77-1.003-1.45-1.182-.501-.143-.859-.268-1.074-.376-.215-.107-.322-.286-.322-.537 0-.465.429-.698 1.289-.698h3.813c.967 0 1.45.555 1.45 1.665v5.156c.502-1.933 1.558-3.616 3.169-5.049 1.683-1.468 3.653-2.202 5.908-2.202 2.006 0 3.671.752 4.996 2.256 1.36 1.504 2.041 4.172 2.041 8.003v16.167h-3.33V35.362c0-2.399-.43-4.153-1.29-5.263-.823-1.11-1.951-1.665-3.383-1.665-2.149 0-4.047 1.163-5.694 3.49-1.396 1.899-2.202 4.763-2.417 8.595v11.44zm41.225-1.235c-.931.537-2.095.966-3.492 1.289-1.36.286-2.9.376-4.619.268-3.258-.215-6.069-1.557-8.432-4.028-2.364-2.47-3.545-5.944-3.545-10.42 0-3.975 1.056-7.054 3.169-9.238 2.112-2.22 4.887-3.33 8.325-3.33 2.757 0 4.977.698 6.66 2.094 1.683 1.361 2.596 2.883 2.739 4.566h-3.491c0-1.11-.537-2.13-1.611-3.062-1.075-.93-2.596-1.396-4.566-1.396-1.969 0-3.724.895-5.263 2.685-1.54 1.755-2.31 4.315-2.31 7.681 0 3.51.841 6.374 2.524 8.594 1.683 2.184 3.921 3.401 6.714 3.652a12.26 12.26 0 0 0 3.223-.107 11.996 11.996 0 0 0 3.384-1.075c.358-.179.644-.214.859-.107.251.108.412.269.483.483.108.251.072.52-.107.806-.143.25-.358.466-.644.645z" fill="url(#b)"/><path d="M34 34.5L58 11l24 23.5L58 58l-6.938-6.793" stroke="url(#c)" stroke-width="2" stroke-linecap="round"/><path d="M1.414 34.5L34.5 1.414 67.586 34.5 34.5 67.586 1.414 34.5z" stroke="url(#d)" stroke-width="2"/><path d="M31 40.5a2.5 2.5 0 1 1-5 0 2.5 2.5 0 0 1 5 0z" stroke="url(#e)" stroke-width="2"/></g><defs><linearGradient id="b" x1="218.5" y1="7" x2="218.5" y2="62" gradientUnits="userSpaceOnUse"><stop stop-color="#AEFFFD"/><stop offset="1" stop-color="#12E6D9"/></linearGradient><linearGradient id="c" x1="70" y1="22.75" x2="46.505" y2="46.745" gradientUnits="userSpaceOnUse"><stop stop-color="#AEFFFD"/><stop offset="1" stop-color="#23E9DD"/></linearGradient><linearGradient id="d" x1="58.145" y1="10.75" x2="17.247" y2="51.751" gradientUnits="userSpaceOnUse"><stop stop-color="#AEFFFD"/><stop offset="1" stop-color="#32EBE1"/></linearGradient><linearGradient id="e" x1="28.497" y1="37" x2="28.497" y2="44" gradientUnits="userSpaceOnUse"><stop stop-color="#AEFFFD"/><stop offset="1" stop-color="#8FFFE4"/></linearGradient><clipPath id="a"><path fill="#fff" d="M0 0h338v69H0z"/></clipPath></defs></svg>