<svg width="652" height="148" viewBox="0 0 652 148" fill="none" xmlns="http://www.w3.org/2000/svg"><path d="M115.901 102.2l-16.6-9.6-5.2-3c-2-1.5-3.3-4-3.3-6.7s1.3-5.2 3.3-6.7l5.2-3-16.6-9.6c-5.5 4.7-8.9 11.6-8.9 19.4 0 7.7 3.4 14.6 8.9 19.3.9.8 1.9 1.5 2.9 2.1l13.7 7.9 45.8 26.5c3.8 2.2 8.1 3.5 12.8 3.5 14.1 0 25.5-11.4 25.5-25.5V49c0-14.1-11.4-25.5-25.5-25.5-4.7 0-9.1 1.3-12.9 3.5l-45.8 26.5 13.7 7.9c1 .6 2 1.4 2.9 2.1l37.7-21.9c1.3-.8 2.8-1.2 4.3-1.2 4.7 0 8.5 3.8 8.5 8.5v67.8c0 4.7-3.8 8.5-8.5 8.5-1.6 0-3-.4-4.3-1.2l-37.6-21.8z" fill="#25a4dc"/><path d="M444.901 106.901v-49.9h23.8V40.6h-23.8V18.3h-17.1V107c0 26.6 16.9 41 41.2 38.2v-15.8c-12.9.7-24.1-4-24.1-22.5zM398.103 7.9c-5.8 0-10.4 4.7-10.4 10.4s4.7 10.4 10.4 10.4c5.8 0 10.4-4.7 10.4-10.4s-4.7-10.4-10.4-10.4zm214.1 102.7V1.4h-17.5v109.3c0 19.2 15.6 34.8 34.8 34.8V128c-9.5-.1-17.3-7.8-17.3-17.4zM344.801 9.6l-41.8 100.801-41.5-100.8h-24.7v134h17.4v-110.3l45.4 110.3h6.9l45.6-110.3v110.3h17.1v-134h-24.4z" fill="#fff"/><path d="M99.302 73.2l5.2 3c2 1.6 3.3 4 3.3 6.7s-1.3 5.2-3.3 6.7l-5.2 3 16.6 9.6c5.4-4.7 8.9-11.6 8.9-19.3 0-7.7-3.5-14.7-8.9-19.4-.9-.8-1.9-1.5-2.9-2.1l-13.7-7.9-45.8-26.5c-3.8-2.2-8.2-3.5-12.9-3.5-14.1 0-25.5 11.4-25.5 25.5v67.8c0 14.1 11.4 25.5 25.5 25.5 4.7 0 9-1.3 12.8-3.5l45.8-26.5-13.7-7.9c-1-.6-2-1.4-2.9-2.1l-37.7 21.7c-1.3.7-2.7 1.2-4.3 1.2-4.7 0-8.5-3.8-8.5-8.5V48.9c0-4.7 3.8-8.5 8.5-8.5 1.6 0 3.1.5 4.3 1.2l37.7 21.9 16.7 9.7z" fill="#585858"/><path d="M629.101.4c5.3 0 9.7 4.2 9.7 9.6 0 5.6-4.4 9.7-9.7 9.7-5.3 0-9.8-4.2-9.8-9.7 0-5.4 4.5-9.6 9.8-9.6zm0 18c4.5 0 8-3.6 8-8.3 0-4.6-3.5-8.2-8-8.2s-8 3.6-8 8.2c0 4.7 3.5 8.3 8 8.3zm-3.8-13.9h4.4c2.7 0 4 1.1 4 3.2s-1.3 2.9-3 3.1l3.2 5h-1.9l-3.1-4.9h-1.9v4.9h-1.8V4.5h.1zm1.8 5h1.8c1.6 0 3-.1 3-1.9 0-1.5-1.3-1.7-2.5-1.7h-2.3v3.6zM406.8 39h-17.3v104.7h17.3V39zm122.101 92.9c-17.3 0-33.9-12.8-36.1-34.5h87.9c.2-37.2-25.8-59.5-52.8-59.5-29 0-52.6 24.8-52.6 55 0 30.7 23.6 54.6 53.6 54.6 24.2 0 42-12.6 49.3-34.9h-18.2c-5.7 12.2-16.3 19.3-31.1 19.3zm-1.2-78.4c15.2 0 29.4 11.4 33.7 28.4h-67.8c4.5-17.8 19.7-28.4 34.1-28.4z" fill="#fff"/></svg>