<svg width="428" height="61" viewBox="0 0 428 61" fill="none" xmlns="http://www.w3.org/2000/svg">
<g clip-path="url(#clip0_338_3297)">
<path d="M206.061 30.1101V30.4901C205.831 35.2901 204.061 39.1701 199.651 41.3401C192.911 44.6201 183.551 41.4501 182.541 31.9801C182.101 27.7701 183.071 23.9801 186.331 21.1101C189.941 17.9401 194.201 17.4201 198.621 19.0101C203.041 20.6001 205.171 23.8501 205.871 28.2701C205.971 28.9101 206.011 29.5501 206.061 30.1101V30.1101ZM210.861 47.1101V0.620117H206.061V18.3101C205.186 17.4957 204.224 16.7813 203.191 16.1801C199.777 14.2209 195.809 13.4539 191.911 14.0001C188.014 14.333 184.384 16.1175 181.741 19.0001C178.411 22.6701 177.331 27.0801 177.691 31.9001C177.897 35.6861 179.459 39.2714 182.091 42.0001C187.091 47.1101 196.021 48.3801 202.561 44.8401C203.833 44.1618 205.01 43.3178 206.061 42.3301V47.0801H210.861V47.1101Z" fill="white" stroke="white" stroke-width="1.25" stroke-miterlimit="10"/>
<path d="M262.518 29.9298C262.448 35.4898 260.778 40.0098 256.578 43.3598C253.063 46.0697 248.627 47.2971 244.218 46.7798C240.384 46.572 236.754 44.9844 233.998 42.3098C231.189 39.5415 229.522 35.819 229.328 31.8798C228.968 27.0898 230.038 22.6898 233.328 19.0198C235.989 16.1223 239.647 14.3365 243.568 14.0198C247.406 13.478 251.315 14.2086 254.698 16.0998C256.809 17.2818 258.602 18.9568 259.926 20.9819C261.249 23.007 262.063 25.3221 262.298 27.7298C262.418 28.5798 262.448 29.4398 262.488 29.9798L262.518 29.9298ZM257.708 30.2898C257.658 29.7298 257.618 29.0298 257.518 28.3398C256.838 23.8698 254.518 20.5398 250.238 18.9998C245.738 17.3998 241.448 17.9998 237.828 21.2498C234.688 24.0998 233.748 27.8298 234.178 31.9498C235.178 41.5998 244.778 44.7498 251.528 41.2598C255.878 39.0198 257.528 35.1098 257.708 30.2598" fill="white"/>
<path d="M257.708 30.2898C257.658 29.7298 257.618 29.0298 257.518 28.3398C256.838 23.8698 254.518 20.5398 250.238 18.9998C245.738 17.3998 241.448 17.9998 237.828 21.2498C234.688 24.0998 233.748 27.8298 234.178 31.9498C235.178 41.5998 244.778 44.7498 251.528 41.2598C255.878 39.0198 257.528 35.1098 257.708 30.2598M262.518 29.9298C262.448 35.4898 260.778 40.0098 256.578 43.3598C253.063 46.0697 248.627 47.2971 244.218 46.7798C240.384 46.572 236.754 44.9844 233.998 42.3098C231.189 39.5415 229.522 35.819 229.328 31.8798C228.968 27.0898 230.038 22.6898 233.328 19.0198C235.989 16.1223 239.647 14.3365 243.568 14.0198C247.406 13.478 251.315 14.2086 254.698 16.0998C256.809 17.2818 258.602 18.9568 259.926 20.9819C261.249 23.007 262.063 25.3221 262.298 27.7298C262.418 28.5798 262.448 29.4398 262.488 29.9798L262.518 29.9298Z" stroke="white" stroke-width="1.25" stroke-miterlimit="10"/>
<path d="M224.191 47.1H219.391V14.29H224.181L224.191 47.1Z" fill="white" stroke="white" stroke-width="1.25" stroke-miterlimit="10"/>
<path d="M218.469 4.89974C218.438 4.45936 218.5 4.01742 218.65 3.6022C218.799 3.18699 219.034 2.80767 219.34 2.48853C219.645 2.1694 220.013 1.91749 220.421 1.74894C220.829 1.58039 221.268 1.49892 221.709 1.50974C222.144 1.51453 222.574 1.60734 222.973 1.78258C223.372 1.95783 223.731 2.21189 224.029 2.5295C224.327 2.8471 224.558 3.22169 224.707 3.63073C224.857 4.03978 224.922 4.47484 224.899 4.90974C224.926 5.35116 224.86 5.7933 224.706 6.20774C224.551 6.62219 224.312 6.99977 224.003 7.31622C223.694 7.63267 223.322 7.88098 222.912 8.0452C222.501 8.20941 222.061 8.2859 221.619 8.26974C221.184 8.27842 220.752 8.19542 220.351 8.02614C219.95 7.85686 219.589 7.6051 219.292 7.28722C218.995 6.96934 218.768 6.59248 218.626 6.18114C218.485 5.7698 218.431 5.3332 218.469 4.89974" fill="white"/>
<path d="M218.469 4.89974C218.438 4.45936 218.5 4.01742 218.65 3.6022C218.799 3.18699 219.034 2.80767 219.34 2.48853C219.645 2.1694 220.013 1.91749 220.421 1.74894C220.829 1.58039 221.268 1.49892 221.709 1.50974C222.144 1.51453 222.574 1.60734 222.973 1.78258C223.372 1.95783 223.731 2.21189 224.029 2.5295C224.327 2.8471 224.558 3.22169 224.707 3.63073C224.857 4.03978 224.922 4.47484 224.899 4.90974C224.926 5.35116 224.86 5.7933 224.706 6.20774C224.551 6.62219 224.312 6.99977 224.003 7.31622C223.694 7.63267 223.322 7.88098 222.912 8.0452C222.501 8.20941 222.061 8.2859 221.619 8.26974C221.184 8.27842 220.752 8.19542 220.351 8.02614C219.95 7.85686 219.589 7.6051 219.292 7.28722C218.995 6.96934 218.768 6.59248 218.626 6.18114C218.485 5.7698 218.431 5.3332 218.469 4.89974" stroke="white" stroke-width="1.25" stroke-miterlimit="10"/>
<path d="M330.47 30.1904C330.28 36.6504 327.91 41.7604 322.16 44.8804C315.62 48.4204 306.67 47.1504 301.69 42.0304C299.052 39.2905 297.493 35.6892 297.3 31.8904C296.94 27.0704 298.02 22.6404 301.3 18.9704C303.948 16.088 307.581 14.3037 311.48 13.9704C315.372 13.4151 319.337 14.1716 322.75 16.1204C324.825 17.3093 326.586 18.9769 327.885 20.9843C329.185 22.9917 329.985 25.2807 330.22 27.6604C330.34 28.5404 330.37 29.4304 330.43 30.1904H330.47ZM325.63 30.1904C325.57 29.5904 325.54 28.8904 325.43 28.1904C324.74 23.7604 322.43 20.4604 318.19 18.9204C313.76 17.3204 309.5 17.8504 305.89 21.0304C302.63 23.8904 301.66 27.6904 302.11 31.9104C303.11 41.4004 312.48 44.5804 319.21 41.2804C323.74 39.0704 325.45 35.1004 325.63 30.1804" fill="white"/>
<path d="M325.63 30.1904C325.57 29.5904 325.54 28.8904 325.43 28.1904C324.74 23.7604 322.43 20.4604 318.19 18.9204C313.76 17.3204 309.5 17.8504 305.89 21.0304C302.63 23.8904 301.66 27.6904 302.11 31.9104C303.11 41.4004 312.48 44.5804 319.21 41.2804C323.74 39.0704 325.45 35.1004 325.63 30.1804M330.47 30.1904C330.28 36.6504 327.91 41.7604 322.16 44.8804C315.62 48.4204 306.67 47.1504 301.69 42.0304C299.052 39.2905 297.493 35.6892 297.3 31.8904C296.94 27.0704 298.02 22.6404 301.3 18.9704C303.948 16.088 307.581 14.3037 311.48 13.9704C315.372 13.4151 319.337 14.1716 322.75 16.1204C324.825 17.3093 326.586 18.9769 327.885 20.9843C329.185 22.9917 329.985 25.2807 330.22 27.6604C330.34 28.5404 330.37 29.4304 330.43 30.1904H330.47Z" stroke="white" stroke-width="1.25" stroke-miterlimit="10"/>
<path d="M132.101 30.6999V30.8199C131.871 35.6299 130.101 39.5099 125.691 41.6899C118.951 44.9799 109.591 41.7999 108.581 32.3099C108.131 28.0999 109.111 24.3099 112.371 21.4299C115.981 18.2499 120.241 17.7299 124.661 19.3199C129.081 20.9099 131.211 24.1599 131.911 28.5999C132.021 29.2799 132.051 29.9799 132.111 30.5999C132.116 30.6397 132.116 30.68 132.111 30.7199L132.101 30.6999ZM136.911 30.7199V30.5799C136.851 29.8099 136.821 28.9199 136.701 28.0399C136.467 25.6611 135.668 23.3727 134.37 21.3654C133.073 19.3581 131.314 17.6899 129.241 16.4999C125.838 14.5515 121.885 13.7882 118.001 14.3299C114.101 14.6632 110.469 16.4474 107.821 19.3299C104.491 23.0099 103.411 27.4299 103.821 32.2599C104.02 36.0563 105.582 39.6535 108.221 42.3899C113.221 47.5199 122.151 48.7899 128.691 45.2399C129.962 44.5557 131.139 43.7086 132.191 42.7199V46.9999H136.991L136.911 30.7199Z" fill="white" stroke="white" stroke-width="1.25" stroke-miterlimit="10"/>
<path d="M361.209 30.1101V30.4901C360.979 35.2901 359.209 39.1701 354.799 41.3401C348.059 44.6201 338.699 41.4501 337.689 31.9801C337.249 27.7701 338.219 23.9801 341.479 21.1101C345.089 17.9401 349.349 17.4201 353.769 19.0101C358.189 20.6001 360.319 23.8501 361.019 28.2701C361.119 28.9101 361.159 29.5501 361.209 30.1101V30.1101ZM366.029 47.1101L365.999 0.620117H361.199V18.3101C360.327 17.4934 359.364 16.7788 358.329 16.1801C354.919 14.2224 350.954 13.4554 347.059 14.0001C343.163 14.3349 339.534 16.1191 336.889 19.0001C333.559 22.6701 332.479 27.0801 332.839 31.9001C333.045 35.6861 334.607 39.2714 337.239 42.0001C342.239 47.1101 351.169 48.3801 357.709 44.8401C358.982 44.1618 360.159 43.3178 361.209 42.3301V47.0201L366.029 47.1101Z" fill="white" stroke="white" stroke-width="1.25" stroke-miterlimit="10"/>
<path d="M281.609 18C274.869 18 270.049 22.94 270.049 30.1C270.049 37.26 274.869 42.25 281.609 42.25C285.879 42.25 289.399 40.77 291.689 38.05L294.469 40.89C291.559 44.41 287.049 46.51 281.419 46.51C271.969 46.51 265.289 39.78 265.289 30.1C265.289 20.42 271.999 13.71 281.419 13.71C286.679 13.71 291.009 15.5 293.969 18.53L291.319 21.86C290.037 20.6059 288.518 19.6189 286.851 18.9563C285.184 18.2937 283.402 17.9686 281.609 18" fill="white"/>
<path d="M281.609 18C274.869 18 270.049 22.94 270.049 30.1C270.049 37.26 274.869 42.25 281.609 42.25C285.879 42.25 289.399 40.77 291.689 38.05L294.469 40.89C291.559 44.41 287.049 46.51 281.419 46.51C271.969 46.51 265.289 39.78 265.289 30.1C265.289 20.42 271.999 13.71 281.419 13.71C286.679 13.71 291.009 15.5 293.969 18.53L291.319 21.86C290.037 20.6059 288.518 19.6189 286.851 18.9563C285.184 18.2937 283.402 17.9686 281.609 18" stroke="white" stroke-width="1.25" stroke-miterlimit="10"/>
<path d="M172.999 16.1504V47.0604H168.169V42.7204C165.279 45.4504 161.679 47.1904 155.799 47.2504C148.189 47.2504 143.609 42.4204 143.609 34.5704V16.1504H148.439V33.3304C148.439 39.1504 151.289 42.9104 156.919 42.9104C163.669 42.7904 168.169 37.5404 168.169 30.4904V16.1504H172.999Z" fill="white" stroke="white" stroke-width="1.25" stroke-miterlimit="10"/>
<path d="M400.922 32.3303H373.922C374.732 38.8603 379.442 43.1203 385.922 43.1203C387.822 43.1603 389.711 42.8079 391.469 42.0853C393.228 41.3627 394.818 40.2852 396.142 38.9203L398.842 41.7403C397.136 43.5383 395.069 44.9545 392.777 45.8956C390.484 46.8367 388.018 47.2814 385.542 47.2003C375.812 47.2003 369.102 40.3603 369.102 30.5103C369.102 20.6603 375.872 13.8803 385.482 13.8203C396.142 13.8203 401.422 21.1603 400.912 32.3303H400.922ZM396.522 28.4403C396.212 22.0403 391.942 17.9003 385.522 17.9003C379.102 17.9003 374.632 22.0003 373.942 28.4403H396.522Z" fill="white" stroke="white" stroke-width="1.25" stroke-miterlimit="10"/>
<path d="M415.002 17.9004C411.342 17.9004 408.552 19.2004 408.552 22.2904C408.552 29.6404 426.782 25.8804 426.782 37.5604C426.782 43.9204 421.082 46.7704 414.782 46.7704C410.183 46.8576 405.718 45.2242 402.262 42.1904L404.122 38.6704C407.128 41.3216 410.994 42.7926 415.002 42.8104C418.852 42.8104 422.002 41.3304 422.002 38.0504C422.182 30.1404 403.892 34.1604 403.952 22.6604C403.952 16.4804 409.352 13.8204 415.302 13.8204C418.99 13.8097 422.604 14.8503 425.722 16.8204L423.862 20.5204C421.2 18.86 418.138 17.9544 415.002 17.9004" fill="white"/>
<path d="M415.002 17.9004C411.342 17.9004 408.552 19.2004 408.552 22.2904C408.552 29.6404 426.782 25.8804 426.782 37.5604C426.782 43.9204 421.082 46.7704 414.782 46.7704C410.183 46.8576 405.718 45.2242 402.262 42.1904L404.122 38.6704C407.128 41.3216 410.994 42.7926 415.002 42.8104C418.852 42.8104 422.002 41.3304 422.002 38.0504C422.182 30.1404 403.892 34.1604 403.952 22.6604C403.952 16.4804 409.352 13.8204 415.302 13.8204C418.99 13.8097 422.604 14.8503 425.722 16.8204L423.862 20.5204C421.2 18.86 418.138 17.9544 415.002 17.9004" stroke="white" stroke-width="1.25" stroke-miterlimit="10"/>
<path d="M52.9219 9.25987C52.9219 9.25987 60.3419 1.80987 74.2119 1.80987C78.6896 1.72922 83.1118 2.80964 87.0478 4.9459C90.9839 7.08216 94.2995 10.2014 96.6719 13.9999L85.7719 21.9999C85.7719 21.9999 82.7719 15.8499 73.9219 15.8499C68.0719 15.8499 62.7419 19.0699 61.4119 24.2999C58.8919 14.1899 52.9219 9.25987 52.9219 9.25987Z" fill="#32a2db"/>
<path d="M69.75 45.82C69.7707 48.3814 70.1066 50.9306 70.75 53.41C71.3507 55.6769 72.1608 57.8831 73.17 60C73.17 60 90.09 61 97.39 47.38L86.23 40C86.23 40 81.83 49.86 69.75 45.86" fill="#32a2db"/>
<path d="M67.91 45.4301C62.6 42.7501 60.34 36.4301 60.34 31.2901C60.34 15.2901 47.83 2.29011 30.27 2.29011C13.13 2.26011 0 11.6401 0 32.3001C0 59.0901 31.86 67.6401 50.52 53.0901C46.528 48.7906 43.8735 43.4224 42.88 37.6401C38.21 49.8701 22.75 49.8901 18.17 40.4401C13.37 30.5401 16.34 16.5401 30.17 16.5401C39.95 16.5401 43.71 24.0701 43.71 30.5401C43.71 46.4201 54.54 60.0101 70.92 60.0101C69.9404 57.7124 69.1641 55.3333 68.6 52.9001C68.127 50.4386 67.8959 47.9367 67.91 45.4301" fill="#585858"/>
</g>
<defs>
<clipPath id="clip0_338_3297">
<rect width="427.44" height="60.12" fill="white"/>
</clipPath>
</defs>
</svg>
