<svg width="2500" height="537" viewBox="0 0 2500 537" fill="none" xmlns="http://www.w3.org/2000/svg">
<g clip-path="url(#clip0_338_3203)">
<path d="M732.93 0L570.364 329.19L407.756 0H351.232L543.32 388.619H597.409L789.454 0H732.93ZM1432.41 0L1269.8 329.19L1107.24 0H1050.71L1242.8 388.619L1170.85 537H1225.92L1488.93 0H1432.41ZM192.853 0L0.765625 388.619H57.2897L88.692 325.045H281.848L262.195 279.801H111.037L219.898 59.472L382.549 388.619H439.03L246.942 0H192.853ZM1654.4 0H1600.27L1408.23 388.619H1464.79L1496.15 325.045H1689.31L1669.66 279.801H1518.5L1627.36 59.472L1789.93 388.619H1846.45L1654.4 0Z" fill="white"/>
<path d="M895.197 0L703.109 388.619H759.633L791.036 325.045H984.149L964.496 279.801H813.38L922.242 59.472L1084.81 388.619H1141.33L949.243 0H895.197ZM1417.29 488.166C1424.64 488.166 1430.19 490.602 1432.41 497.907H1451.17C1447.71 479.664 1431.34 475.434 1417.29 475.434C1395.41 475.434 1380.76 484.278 1380.76 505.128C1380.76 525.977 1394.9 534.864 1415.75 534.864C1433.82 534.864 1447.83 530.42 1451.17 510.81H1432.41C1431.47 517.731 1425.32 522.089 1417.29 522.089C1406.05 522.089 1399.56 515.98 1399.56 505.17C1399.56 494.361 1406.09 488.166 1417.29 488.166V488.166ZM1506.15 475.392C1484.28 475.392 1469.62 484.236 1469.62 505.085C1469.62 525.934 1484.32 534.821 1506.15 534.821C1527.98 534.821 1542.68 525.934 1542.68 505.085C1542.68 484.236 1528.03 475.392 1506.15 475.392Z" fill="white"/>
<path d="M1506.15 522.047C1494.87 522.047 1488.42 515.937 1488.42 505.128C1488.42 494.319 1494.87 488.209 1506.15 488.209C1517.39 488.209 1523.93 494.319 1523.93 505.128C1523.93 515.937 1517.39 522.047 1506.15 522.047Z" fill="#161616"/>
<path d="M1642.95 476.033C1638.6 475.826 1634.26 476.66 1630.29 478.465C1626.32 480.271 1622.84 482.996 1620.14 486.415C1617.36 480.134 1611.55 476.033 1601.04 476.033C1590.4 476.033 1581.73 480.818 1578.48 485.518H1578.23V477.485H1560.71V532.813H1578.91V502.906C1578.91 494.233 1585.06 490.089 1592.84 490.089C1597.84 490.089 1603.78 492.182 1603.78 499.574V532.813H1621.93V502.906C1621.93 494.233 1628.13 490.089 1635.65 490.089C1640.9 490.089 1646.8 492.182 1646.8 499.574V532.813H1664.96V495.301C1664.87 480.732 1654.06 476.033 1642.95 476.033V476.033ZM1767.58 476.033C1763.23 475.826 1758.89 476.66 1754.92 478.465C1750.95 480.271 1747.47 482.996 1744.77 486.415C1741.99 480.134 1736.18 476.033 1725.67 476.033C1715.03 476.033 1706.36 480.818 1703.11 485.518H1702.85V477.485H1685.34V532.813H1703.5V502.906C1703.5 494.233 1709.69 490.089 1717.42 490.089C1722.46 490.089 1728.4 492.182 1728.4 499.574V532.813H1746.56V502.906C1746.56 494.233 1752.76 490.089 1760.28 490.089C1765.53 490.089 1771.43 492.182 1771.43 499.574V532.813H1789.58V495.301C1789.54 480.732 1778.73 476.033 1767.58 476.033V476.033ZM1868.88 505.085C1868.88 515.339 1863.33 520.808 1853.5 520.808C1845.17 520.808 1841.11 517.091 1841.11 509.358V477.4H1822.95V514.912C1822.95 531.19 1837.31 534.821 1846.71 534.821C1857.3 534.821 1865.98 529.951 1869.31 525.251H1869.48V532.728H1887.04V477.4H1868.88V505.085V505.085ZM1952.19 476.033C1941.51 476.033 1932.84 480.818 1929.59 485.518H1929.33V477.485H1911.82V532.813H1929.98V506.068C1929.98 494.319 1937.11 490.089 1945.57 490.089C1953.69 490.089 1957.7 493.806 1957.7 501.454V532.813H1975.9V496.028C1975.86 479.664 1961.55 476.033 1952.19 476.033V476.033ZM2009.27 532.77H2027.47V477.443H2009.27V532.77ZM2009.27 470.692H2027.47V457.875H2009.27V470.692ZM2086.18 488.166C2093.52 488.166 2099.08 490.602 2101.26 497.908H2120.01C2116.64 479.664 2100.23 475.435 2086.18 475.435C2064.26 475.435 2049.6 484.279 2049.6 505.128C2049.6 525.977 2063.79 534.864 2084.64 534.864C2102.71 534.864 2116.72 530.421 2120.01 510.81H2101.26C2100.36 517.732 2094.21 522.089 2086.18 522.089C2074.9 522.089 2068.4 515.98 2068.4 505.171C2068.4 494.361 2074.9 488.166 2086.18 488.166V488.166ZM2205.55 494.148C2205.55 483.809 2199.99 475.392 2173.97 475.392C2159.11 475.392 2143.43 477.314 2141.25 494.361H2158.81C2161.37 486.714 2165.34 486.116 2173.12 486.116C2183.63 486.116 2187.39 488.337 2187.39 492.695C2187.39 497.138 2185.55 498.078 2179.95 498.506L2160.6 499.83C2149.58 500.556 2137.74 503.462 2137.74 516.834C2137.74 529.737 2147.83 534.821 2162.22 534.821C2170.38 534.821 2181.96 533.07 2188.16 526.832C2188.32 528.841 2188.74 530.822 2189.4 532.728H2207.6C2206.09 529.21 2205.37 525.402 2205.5 521.577V494.148H2205.55V494.148Z" fill="white"/>
<path d="M2188.03 510.34C2188.03 519.611 2177.78 524.097 2168.63 524.097C2161.8 524.097 2157.1 521.277 2157.1 516.321C2157.1 511.365 2160.34 509.571 2166.75 509.101L2177.26 508.204C2180.96 508.01 2184.61 507.186 2188.03 505.769V510.34V510.34Z" fill="#161616"/>
<path d="M2256.94 515.424V489.619H2271.6V477.443H2256.94V460.353H2238.74V477.443H2227.25V489.619H2238.74V517.603C2238.74 527.601 2240.41 533.967 2257.63 533.967C2261.64 533.967 2268.44 533.369 2271.85 532.941V520.808C2269.03 520.979 2266.21 521.192 2262.97 521.192C2258.27 521.192 2256.94 519.74 2256.94 515.424V515.424ZM2300.99 470.692H2319.11V457.875H2300.99V470.692ZM2300.99 532.77H2319.11V477.443H2300.99V532.77ZM2377.9 475.392C2355.98 475.392 2341.37 484.236 2341.37 505.085C2341.37 525.935 2356.02 534.821 2377.9 534.821C2399.77 534.821 2414.38 525.935 2414.38 505.085C2414.38 484.236 2399.73 475.392 2377.9 475.392Z" fill="white"/>
<path d="M2377.9 522.047C2366.62 522.047 2360.12 515.937 2360.12 505.128C2360.12 494.319 2366.62 488.209 2377.9 488.209C2389.13 488.209 2395.63 494.319 2395.63 505.128C2395.63 515.937 2389.09 522.047 2377.9 522.047Z" fill="#161616"/>
<path d="M2475.52 476.032C2464.88 476.032 2456.21 480.817 2452.96 485.517H2452.71V477.485H2435.19V532.813H2453.39V506.067C2453.39 494.318 2460.48 490.088 2468.94 490.088C2477.06 490.088 2481.12 493.805 2481.12 501.453V532.813H2499.28V496.027C2499.23 479.664 2484.92 476.032 2475.52 476.032V476.032Z" fill="white"/>
</g>
<defs>
<clipPath id="clip0_338_3203">
<rect width="2500" height="537" fill="white"/>
</clipPath>
</defs>
</svg>
