<svg width="338" height="69" viewBox="0 0 338 69" fill="none" xmlns="http://www.w3.org/2000/svg">
<g clip-path="url(#clip0_338_3177)">
<path d="M124.029 51.959L120.001 39.5518H106.788L102.921 51.959H99.6982L109.903 20.8604C110.44 18.8193 110.584 17.6019 110.333 17.208C110.082 16.7783 109.492 16.4382 108.561 16.1875C108.023 16.0443 107.647 15.9189 107.433 15.8115C107.218 15.7041 107.11 15.5072 107.11 15.2207C107.11 14.7552 107.522 14.5225 108.346 14.5225H115.221L127.735 51.959H124.029ZM119.249 37.1348L113.341 18.873L107.594 37.1348H119.249ZM133.027 39.0684C133.027 42.8281 133.689 45.5674 135.014 47.2861C136.339 49.0049 137.986 49.8643 139.956 49.8643C141.71 49.8643 143.304 49.0049 144.736 47.2861C146.168 45.5674 146.884 43.1683 146.884 40.0889V36.0068C146.884 33.6077 146.168 31.6383 144.736 30.0986C143.339 28.5231 141.8 27.7354 140.117 27.7354C137.754 27.7354 135.981 28.7021 134.799 30.6357C133.618 32.5693 133.027 35.3802 133.027 39.0684ZM147.046 47.3936C146.866 47.7158 146.67 48.0202 146.455 48.3066C144.736 50.9922 142.444 52.335 139.58 52.335C136.429 52.335 133.976 51.0996 132.221 48.6289C130.467 46.1224 129.589 42.8818 129.589 38.9072C129.589 34.682 130.485 31.3519 132.275 28.917C134.065 26.4821 136.5 25.2646 139.58 25.2646C142.587 25.2646 144.915 26.4105 146.562 28.7021L147.046 29.3467C147.046 27.9502 147.278 26.9118 147.744 26.2314C148.173 25.5869 148.693 25.2646 149.301 25.2646H150.376V61.1973H147.046V47.3936ZM177.259 51.959H173.929V45.8359C173.535 47.3757 172.765 48.7005 171.619 49.8105C169.936 51.4935 167.788 52.335 165.174 52.335C163.24 52.335 161.557 51.583 160.125 50.0791C158.693 48.5752 157.977 45.8717 157.977 41.9688V31.2266C157.977 30.1523 157.834 29.3288 157.547 28.7559C157.261 28.1471 156.777 27.7533 156.097 27.5742C155.596 27.431 155.237 27.3057 155.023 27.1982C154.808 27.0908 154.7 26.9118 154.7 26.6611C154.7 26.1956 155.13 25.9629 155.989 25.9629H159.857C160.823 25.9629 161.307 26.5358 161.307 27.6816V42.5059C161.307 44.9049 161.719 46.6774 162.542 47.8232C163.402 48.9333 164.547 49.4883 165.98 49.4883C168.379 49.4883 170.384 48.3424 171.995 46.0508C173.034 44.5827 173.678 42.0762 173.929 38.5312V31.2266C173.929 30.1523 173.768 29.3288 173.446 28.7559C173.159 28.1471 172.729 27.7712 172.156 27.6279C171.548 27.4489 171.136 27.3057 170.921 27.1982C170.742 27.055 170.653 26.876 170.653 26.6611C170.653 26.1956 171.082 25.9629 171.942 25.9629H175.809C176.776 25.9629 177.259 26.5179 177.259 27.6279V51.959ZM199.201 47.501C198.735 48.8258 197.697 49.9717 196.086 50.9385C194.474 51.8695 192.595 52.335 190.446 52.335C188.333 52.335 186.561 51.7083 185.129 50.4551C183.732 49.2018 183.034 47.5189 183.034 45.4062C183.034 42.5775 184.305 40.3395 186.847 38.6924C189.39 37.0094 192.899 36.168 197.375 36.168H199.201V34.5029C199.201 32.2113 198.628 30.4746 197.482 29.293C196.372 28.0755 194.85 27.4668 192.917 27.4668C191.234 27.4668 189.837 27.8965 188.727 28.7559C187.617 29.6152 187.062 30.6895 187.062 31.9785H183.356C183.356 30.1523 184.251 28.5768 186.042 27.252C187.832 25.9271 190.178 25.2646 193.078 25.2646C196.086 25.2646 198.413 26.0524 200.06 27.6279C201.743 29.1676 202.585 31.3698 202.585 34.2344V51.959H199.201V47.501ZM199.201 38.5312C194.797 38.4238 191.556 38.943 189.479 40.0889C187.438 41.2347 186.418 42.8281 186.418 44.8691C186.418 46.5879 186.901 47.8411 187.868 48.6289C188.871 49.3809 190.016 49.7568 191.305 49.7568C193.239 49.7568 195.029 49.0765 196.677 47.7158C198.36 46.3193 199.201 44.5469 199.201 42.3984V38.5312ZM213.409 17.8525V25.9629H220.606V28.1113H213.462V46.0508C213.462 47.4473 213.802 48.4857 214.483 49.166C215.163 49.8105 216.202 50.1328 217.598 50.1328C218.314 50.1328 218.977 50.1149 219.585 50.0791C220.194 50.0433 220.695 49.9717 221.089 49.8643V52.0664C220.66 52.2096 219.943 52.3171 218.941 52.3887C217.938 52.4603 217.186 52.4961 216.685 52.4961C215.145 52.4961 213.928 52.3529 213.033 52.0664C212.173 51.7441 211.529 51.2607 211.099 50.6162C210.634 50.0075 210.347 49.2197 210.24 48.2529C210.132 47.2503 210.079 46.0866 210.079 44.7617V28.1113H206.211V25.9629H210.079V21.0752L213.409 17.8525ZM227.348 39.0684C227.455 42.1836 228.314 44.7438 229.926 46.749C231.537 48.7184 233.739 49.8285 236.532 50.0791C237.571 50.1865 238.645 50.1507 239.755 49.9717C240.901 49.7926 242.029 49.4346 243.139 48.8975C243.497 48.7184 243.801 48.6826 244.052 48.79C244.302 48.8975 244.446 49.0586 244.481 49.2734C244.553 49.5241 244.517 49.7926 244.374 50.0791C244.231 50.3298 244.016 50.5446 243.729 50.7236C242.799 51.2607 241.635 51.6904 240.238 52.0127C238.878 52.2992 237.338 52.3887 235.619 52.2812C232.361 52.0664 229.55 50.7236 227.187 48.2529C224.823 45.7822 223.642 42.3089 223.642 37.833C223.642 33.8584 224.698 30.779 226.811 28.5947C228.923 26.3747 231.662 25.2646 235.028 25.2646C237.821 25.2646 240.167 26.2673 242.064 28.2725C243.962 30.2777 244.911 33.2318 244.911 37.1348V39.0684H227.348ZM227.348 36.7588H241.527C241.527 33.3929 240.883 31.0117 239.594 29.6152C238.34 28.1829 236.801 27.4668 234.975 27.4668C232.898 27.4668 231.125 28.2904 229.657 29.9375C228.189 31.5488 227.419 33.8226 227.348 36.7588ZM254.338 51.959H250.901V18.5508C250.901 17.4766 250.758 16.653 250.471 16.0801C250.185 15.5072 249.737 15.1491 249.129 15.0059C248.52 14.791 248.126 14.6299 247.947 14.5225C247.768 14.3792 247.678 14.2002 247.678 13.9854C247.678 13.5557 248.09 13.3408 248.914 13.3408H252.835C253.837 13.3408 254.338 13.9137 254.338 15.0596V51.959ZM281.518 51.959H278.027V19.7861C278.027 18.7119 277.866 17.8883 277.544 17.3154C277.221 16.7067 276.702 16.3128 275.986 16.1338C275.342 15.9906 274.894 15.8652 274.643 15.7578C274.393 15.6504 274.267 15.4714 274.267 15.2207C274.267 14.7552 274.679 14.5225 275.503 14.5225H280.014C281.017 14.5225 281.518 15.0954 281.518 16.2412V51.959ZM292.503 51.959H289.281V31.2266C289.281 30.1523 289.12 29.3288 288.797 28.7559C288.511 28.1471 288.027 27.7533 287.347 27.5742C286.846 27.431 286.488 27.3057 286.273 27.1982C286.058 27.0908 285.951 26.9118 285.951 26.6611C285.951 26.1956 286.38 25.9629 287.24 25.9629H291.053C292.02 25.9629 292.503 26.5179 292.503 27.6279V32.7842C293.005 30.8506 294.061 29.1676 295.672 27.7354C297.355 26.2673 299.325 25.5332 301.58 25.5332C303.586 25.5332 305.251 26.2852 306.576 27.7891C307.936 29.293 308.617 31.9606 308.617 35.792V51.959H305.287V35.3623C305.287 32.9632 304.857 31.2087 303.997 30.0986C303.174 28.9886 302.046 28.4336 300.614 28.4336C298.465 28.4336 296.567 29.5973 294.92 31.9248C293.524 33.8226 292.718 36.6872 292.503 40.5186V51.959ZM333.728 50.7236C332.797 51.2607 331.633 51.6904 330.236 52.0127C328.876 52.2992 327.336 52.3887 325.617 52.2812C322.359 52.0664 319.548 50.7236 317.185 48.2529C314.821 45.7822 313.64 42.3089 313.64 37.833C313.64 33.8584 314.696 30.779 316.809 28.5947C318.921 26.3747 321.696 25.2646 325.134 25.2646C327.891 25.2646 330.111 25.9629 331.794 27.3594C333.477 28.7201 334.39 30.2419 334.533 31.9248H331.042C331.042 30.8148 330.505 29.7943 329.431 28.8633C328.356 27.9323 326.835 27.4668 324.865 27.4668C322.896 27.4668 321.141 28.362 319.602 30.1523C318.062 31.9069 317.292 34.4671 317.292 37.833C317.292 41.3421 318.133 44.2067 319.816 46.4268C321.499 48.611 323.737 49.8285 326.53 50.0791C327.569 50.1865 328.643 50.1507 329.753 49.9717C330.899 49.7926 332.027 49.4346 333.137 48.8975C333.495 48.7184 333.781 48.6826 333.996 48.79C334.247 48.8975 334.408 49.0586 334.479 49.2734C334.587 49.5241 334.551 49.7926 334.372 50.0791C334.229 50.3298 334.014 50.5446 333.728 50.7236Z" fill="url(#paint0_linear_338_3177)"/>
<path d="M34 34.5L58 11L82 34.5L58 58L51.062 51.2066" stroke="url(#paint1_linear_338_3177)" stroke-width="2" stroke-linecap="round"/>
<path d="M1.41421 34.5L34.5 1.41421L67.5858 34.5L34.5 67.5858L1.41421 34.5Z" stroke="url(#paint2_linear_338_3177)" stroke-width="2"/>
<path d="M31 40.5C31 41.8807 29.8807 43 28.5 43C27.1193 43 26 41.8807 26 40.5C26 39.1193 27.1193 38 28.5 38C29.8807 38 31 39.1193 31 40.5Z" stroke="url(#paint3_linear_338_3177)" stroke-width="2"/>
</g>
<defs>
<linearGradient id="paint0_linear_338_3177" x1="218.5" y1="7" x2="218.5" y2="62" gradientUnits="userSpaceOnUse">
<stop stop-color="#AEFFFD"/>
<stop offset="1" stop-color="#12E6D9"/>
</linearGradient>
<linearGradient id="paint1_linear_338_3177" x1="70.0001" y1="22.75" x2="46.5053" y2="46.7447" gradientUnits="userSpaceOnUse">
<stop stop-color="#AEFFFD"/>
<stop offset="1" stop-color="#23E9DD"/>
</linearGradient>
<linearGradient id="paint2_linear_338_3177" x1="58.1453" y1="10.7501" x2="17.2468" y2="51.7508" gradientUnits="userSpaceOnUse">
<stop stop-color="#AEFFFD"/>
<stop offset="1" stop-color="#32EBE1"/>
</linearGradient>
<linearGradient id="paint3_linear_338_3177" x1="28.497" y1="37" x2="28.497" y2="44" gradientUnits="userSpaceOnUse">
<stop stop-color="#AEFFFD"/>
<stop offset="1" stop-color="#8FFFE4"/>
</linearGradient>
<clipPath id="clip0_338_3177">
<rect width="338" height="69" fill="white"/>
</clipPath>
</defs>
</svg>
