<svg width="652" height="148" viewBox="0 0 652 148" fill="none" xmlns="http://www.w3.org/2000/svg">
<path d="M115.901 102.2L99.3008 92.6L94.1008 89.6C92.1008 88.1 90.8008 85.6 90.8008 82.9C90.8008 80.2 92.1008 77.7 94.1008 76.2L99.3008 73.2L82.7008 63.6C77.2008 68.3 73.8008 75.2 73.8008 83C73.8008 90.7 77.2008 97.6 82.7008 102.3C83.6008 103.1 84.6008 103.8 85.6008 104.4L99.3008 112.3L145.101 138.8C148.901 141 153.201 142.3 157.901 142.3C172.001 142.3 183.401 130.9 183.401 116.8V49C183.401 34.9 172.001 23.5 157.901 23.5C153.201 23.5 148.801 24.8 145.001 27L99.2008 53.5L112.901 61.4C113.901 62 114.901 62.8 115.801 63.5L153.501 41.6C154.801 40.8 156.301 40.4 157.801 40.4C162.501 40.4 166.301 44.2 166.301 48.9V116.7C166.301 121.4 162.501 125.2 157.801 125.2C156.201 125.2 154.801 124.8 153.501 124L115.901 102.2Z" fill="#C7C7C7"/>
<path d="M444.901 106.901V57.0008H468.701V40.6008H444.901V18.3008H427.801V107.001C427.801 133.601 444.701 148.001 469.001 145.201V129.401C456.101 130.101 444.901 125.401 444.901 106.901Z" fill="white"/>
<path d="M398.103 7.90039C392.303 7.90039 387.703 12.6004 387.703 18.3004C387.703 24.0004 392.403 28.7004 398.103 28.7004C403.903 28.7004 408.503 24.0004 408.503 18.3004C408.503 12.6004 403.803 7.90039 398.103 7.90039Z" fill="white"/>
<path d="M612.203 110.6V1.40039H594.703V110.7C594.703 129.9 610.303 145.5 629.503 145.5V128C620.003 127.9 612.203 120.2 612.203 110.6Z" fill="white"/>
<path d="M344.801 9.60059L303.001 110.401L261.501 9.60059H236.801V143.601H254.201V33.3006L299.601 143.601H306.501L352.101 33.3006V143.601H369.201V9.60059H344.801Z" fill="white"/>
<path d="M99.3016 73.2L104.502 76.2C106.502 77.8 107.802 80.2 107.802 82.9C107.802 85.6 106.502 88.1 104.502 89.6L99.3016 92.6L115.902 102.2C121.302 97.5 124.802 90.6 124.802 82.9C124.802 75.2 121.302 68.2 115.902 63.5C115.002 62.7 114.002 62 113.002 61.4L99.3016 53.5L53.5016 27C49.7016 24.8 45.3016 23.5 40.6016 23.5C26.5016 23.5 15.1016 34.9 15.1016 49V116.8C15.1016 130.9 26.5016 142.3 40.6016 142.3C45.3016 142.3 49.6016 141 53.4016 138.8L99.2016 112.3L85.5016 104.4C84.5016 103.8 83.5016 103 82.6016 102.3L44.9016 124C43.6016 124.7 42.2016 125.2 40.6016 125.2C35.9016 125.2 32.1016 121.4 32.1016 116.7V48.9C32.1016 44.2 35.9016 40.4 40.6016 40.4C42.2016 40.4 43.7016 40.9 44.9016 41.6L82.6016 63.5L99.3016 73.2Z" fill="#585858"/>
<path d="M629.101 0.400391C634.401 0.400391 638.801 4.6004 638.801 10.0004C638.801 15.6004 634.401 19.7004 629.101 19.7004C623.801 19.7004 619.301 15.5004 619.301 10.0004C619.301 4.6004 623.801 0.400391 629.101 0.400391ZM629.101 18.4004C633.601 18.4004 637.101 14.8004 637.101 10.1004C637.101 5.5004 633.601 1.90039 629.101 1.90039C624.601 1.90039 621.101 5.5004 621.101 10.1004C621.101 14.8004 624.601 18.4004 629.101 18.4004ZM625.301 4.5004H629.701C632.401 4.5004 633.701 5.60041 633.701 7.70041C633.701 9.80041 632.401 10.6004 630.701 10.8004L633.901 15.8004H632.001L628.901 10.9004H627.001V15.8004H625.201V4.5004H625.301ZM627.101 9.5004H628.901C630.501 9.5004 631.901 9.4004 631.901 7.6004C631.901 6.1004 630.601 5.90039 629.401 5.90039H627.101V9.5004Z" fill="white"/>
<path d="M406.8 39H389.5V143.7H406.8V39Z" fill="white"/>
<path d="M528.901 131.9C511.601 131.9 495.001 119.1 492.801 97.4004H580.701C580.901 60.2004 554.901 37.9004 527.901 37.9004C498.901 37.9004 475.301 62.7004 475.301 92.9004C475.301 123.6 498.901 147.5 528.901 147.5C553.101 147.5 570.901 134.9 578.201 112.6H560.001C554.301 124.8 543.701 131.9 528.901 131.9ZM527.701 53.5004C542.901 53.5004 557.101 64.9004 561.401 81.9004H493.601C498.101 64.1004 513.301 53.5004 527.701 53.5004Z" fill="white"/>
</svg>
