<svg width="183" height="80" viewBox="0 0 183 80" fill="none" xmlns="http://www.w3.org/2000/svg">
<g clip-path="url(#clip0_338_3367)">
<path d="M95.6984 26.2601C93.8388 26.229 91.9925 26.5769 90.2717 27.2825C88.551 27.9881 86.9919 29.0367 85.6896 30.3643C84.3872 31.6919 83.3688 33.2708 82.6963 35.0048C82.0239 36.7388 81.7116 38.5915 81.7784 40.4501V67.3701L88.7784 63.3201V51.5401C90.8113 53.073 93.303 53.873 95.8484 53.8101C97.6884 53.8518 99.5181 53.5244 101.23 52.8474C102.941 52.1703 104.5 51.1573 105.813 49.868C107.127 48.5788 108.169 47.0395 108.877 45.3409C109.586 43.6424 109.948 41.8191 109.94 39.9786C109.933 38.1381 109.557 36.3177 108.835 34.6249C108.112 32.9321 107.058 31.4011 105.734 30.1224C104.41 28.8437 102.844 27.8432 101.127 27.1798C99.4103 26.5164 97.578 26.2037 95.7384 26.2601H95.6984ZM95.6984 46.8901C94.3416 46.8901 93.0153 46.4877 91.8871 45.7339C90.759 44.9802 89.8798 43.9088 89.3605 42.6553C88.8413 41.4018 88.7055 40.0225 88.9702 38.6918C89.2349 37.3611 89.8882 36.1387 90.8476 35.1793C91.807 34.2199 93.0293 33.5666 94.36 33.3019C95.6908 33.0372 97.0701 33.173 98.3236 33.6923C99.5771 34.2115 100.648 35.0908 101.402 36.2189C102.156 37.347 102.558 38.6733 102.558 40.0301C102.604 40.9431 102.458 41.8555 102.13 42.7086C101.801 43.5617 101.297 44.3364 100.651 44.9828C100.005 45.6292 99.23 46.1329 98.3769 46.4614C97.5238 46.7899 96.6114 46.936 95.6984 46.8901V46.8901ZM143.618 17.6401L150.618 13.5801V52.7701H143.618V17.6401ZM126.158 26.2601C123.439 26.2877 120.788 27.1196 118.54 28.6509C116.292 30.1822 114.548 32.3444 113.527 34.8653C112.505 37.3861 112.253 40.1529 112.801 42.8169C113.349 45.4809 114.674 47.9232 116.607 49.8359C118.541 51.7487 120.997 53.0465 123.667 53.5658C126.337 54.0852 129.101 53.8028 131.61 52.7543C134.12 51.7058 136.263 49.9381 137.77 47.6738C139.277 45.4095 140.08 42.75 140.078 40.0301C140.088 38.2081 139.734 36.4026 139.037 34.7191C138.34 33.0357 137.315 31.5081 136.02 30.2258C134.726 28.9436 133.189 27.9324 131.499 27.2514C129.809 26.5705 128 26.2334 126.178 26.2601H126.158ZM126.158 46.8901C124.802 46.8901 123.475 46.4877 122.347 45.7339C121.219 44.9802 120.34 43.9088 119.821 42.6553C119.301 41.4018 119.165 40.0225 119.43 38.6918C119.695 37.3611 120.348 36.1387 121.308 35.1793C122.267 34.2199 123.489 33.5666 124.82 33.3019C126.151 33.0372 127.53 33.173 128.784 33.6923C130.037 34.2115 131.108 35.0908 131.862 36.2189C132.616 37.347 133.018 38.6733 133.018 40.0301C133.064 40.9413 132.919 41.852 132.591 42.7036C132.264 43.5553 131.762 44.329 131.118 44.9751C130.474 45.6211 129.701 46.1253 128.851 46.4551C128 46.7849 127.09 46.9331 126.178 46.8901H126.158ZM182.698 27.3001L166.328 64.7201H158.848L164.518 52.2001L153.518 27.3001H161.158L168.378 43.6301L175.238 27.3001H182.698Z" fill="white"/>
<path d="M59.8803 34.61L45.5103 42.91L45.5803 42.52V42.17V41.6V41.51V40.81V39.49V38.69L45.5203 37.96L45.4503 37.17L45.3903 36.73L45.2803 35.96L45.1403 35.21L44.9903 34.47L44.8103 33.74L44.6903 33.29L44.4803 32.59L44.2503 31.91L44.0403 31.35L43.7703 30.68L43.4803 30.04L43.1803 29.41L42.8503 28.78L42.4903 28.17V28.11L42.1103 27.51L41.7103 26.91L41.2903 26.33L40.8403 25.75L40.3603 25.17L40.3003 25.11L39.8003 24.55L39.2603 23.99L38.7003 23.43L38.1003 22.88L37.4703 22.33L36.8003 21.78L36.1203 21.26L35.3703 20.7L34.5503 20.13L33.9403 19.72L33.0003 19.12L31.9403 18.47L31.5903 18.26L30.3003 17.49L29.9703 17.31L29.1603 16.83L0.0703125 0V10.54L14.4403 18.83L14.0703 18.97L13.7503 19.11L13.2303 19.35L12.6103 19.68L11.9503 20.06L11.4703 20.34L10.8003 20.77L10.1903 21.19L9.54031 21.65L9.19032 21.92L8.58031 22.4L7.99031 22.89L7.43031 23.4L6.89031 23.91L6.56031 24.24L6.06031 24.77L5.58031 25.32L5.20031 25.78L4.76031 26.34L4.35032 26.91L3.95031 27.49L3.58031 28.09L3.22031 28.71V28.76L2.89031 29.39L2.57031 30.04L2.28032 30.7L2.00031 31.37L1.75031 32.07V32.16L1.51031 32.88L1.30031 33.62L1.10032 34.38L0.920315 35.17V35.24L0.760315 36.06L0.620312 36.92L0.500313 37.77L0.400314 38.7L0.310314 39.7V40.44L0.250313 41.55V42.79V79.6L9.38031 74.34V57.78L9.68031 58.03L9.96031 58.24L10.4403 58.57L11.0303 58.94L11.7003 59.33L12.1803 59.6L12.9003 59.97L13.5503 60.29L14.2803 60.62L14.6603 60.78L15.3903 61.07L16.1203 61.33L16.8403 61.57L17.5603 61.78L18.0003 61.9L18.7203 62.07L19.4303 62.21L20.0103 62.31L20.7303 62.41L21.4403 62.49L22.1203 62.54H22.8403H23.6003H24.3103L25.0403 62.49L25.7603 62.41L26.4903 62.31L27.2303 62.18H27.3003L28.0503 62.02L28.8003 61.84L29.5703 61.62L30.3603 61.38L31.1503 61.1L31.9703 60.79L32.7503 60.47L33.6203 60.09L34.5303 59.66L35.1803 59.34L36.1803 58.83L37.2803 58.24L37.6303 58.05L38.9503 57.3L39.2603 57.12L40.0803 56.65L69.1603 39.86L59.8803 34.61ZM23.0303 53.43C20.342 53.432 17.7136 52.6366 15.4774 51.1445C13.2412 49.6525 11.4978 47.5307 10.4677 45.0476C9.43753 42.5645 9.16698 39.8317 9.69022 37.1949C10.2135 34.558 11.507 32.1356 13.4072 30.234C15.3074 28.3324 17.7289 27.037 20.3654 26.5119C23.0018 25.9867 25.7348 26.2552 28.2187 27.2835C30.7025 28.3118 32.8256 30.0537 34.3193 32.2888C35.813 34.5239 36.6103 37.1517 36.6103 39.84C36.6103 43.4426 35.1799 46.8977 32.6334 49.4461C30.087 51.9944 26.6329 53.4274 23.0303 53.43V53.43Z" fill="#585858"/>
</g>
<defs>
<clipPath id="clip0_338_3367">
<rect width="182.66" height="79.63" fill="white"/>
</clipPath>
</defs>
</svg>
